<?xml version="1.0" encoding="UTF-8"?>
<svg xmlns="http://www.w3.org/2000/svg" viewBox="0 0 233 138.89">
  <defs>
    <style>
      .cls-1 {
        fill: #c99d66;
      }

      .cls-2 {
        fill: #e0860b;
      }

      .cls-3 {
        fill: #e5e1b7;
      }

      .cls-4 {
        isolation: isolate;
      }

      .cls-5 {
        stroke-width: 2px;
      }

      .cls-5, .cls-6, .cls-7 {
        fill: none;
        stroke-miterlimit: 10;
      }

      .cls-5, .cls-7 {
        stroke: #1d1d1b;
      }

      .cls-6 {
        stroke: #e0860b;
      }

      .cls-8 {
        mix-blend-mode: multiply;
      }

      .cls-9 {
        fill: #f7eccd;
      }

      .cls-7 {
        stroke-width: 3px;
      }

      .cls-10 {
        fill: #1d1d1b;
      }
    </style>
  </defs>
  <g class="cls-4">
    <g id="Calque_1" data-name="Calque 1">
      <g>
        <rect class="cls-1" x="61.68" y="42.83" width="24.2" height="48.7"/>
        <rect class="cls-1" x="155.97" y="42.83" width="24.2" height="48.7"/>
        <rect class="cls-3" x="89.33" y="45.65" width="62.23" height="45.87"/>
        <g>
          <path class="cls-2" d="M142.34,42.19c0,.22,0,.42-.02.64h-50.9c-.02-.22-.02-.42-.02-.64,0-12.61,11.4-22.83,25.47-22.83s25.47,10.22,25.47,22.83Z"/>
          <line class="cls-6" x1="86.31" y1="12.97" x2="96.82" y2="22.89"/>
          <line class="cls-6" x1="83.12" y1="29.12" x2="89.51" y2="32.32"/>
          <line class="cls-6" x1="117.8" y1=".03" x2="116.95" y2="14.45"/>
          <line class="cls-6" x1="103.5" y1="9.89" x2="107.12" y2="16.05"/>
          <line class="cls-6" x1="131.19" y1="10.23" x2="129.27" y2="17.12"/>
          <line class="cls-6" x1="138.21" y1="23.18" x2="148.13" y2="12.68"/>
          <line class="cls-6" x1="152.09" y1="28.53" x2="145.92" y2="32.12"/>
        </g>
        <line class="cls-7" x1="233" y1="91.4" y2="91.4"/>
        <rect class="cls-5" x="56.67" y="38.76" width="25.74" height="52.68"/>
        <rect class="cls-5" x="150.66" y="38.76" width="25.74" height="52.68"/>
        <rect class="cls-5" x="82.41" y="42.15" width="68.25" height="49.3"/>
        <g class="cls-8">
          <path class="cls-9" d="M109.75,61.72c-.17.87-.26,1.77-.26,2.69l.37-3.23-.12.54Z"/>
          <path class="cls-1" d="M131.46,61.72c.17.87.26,1.77.26,2.69v27.04h-22.23v-27.04c0-.92.09-1.82.25-2.69.03-.18.07-.36.12-.54,1.23-5.28,5.43-9.41,10.75-10.56,5.31,1.15,9.51,5.29,10.73,10.56.05.18.09.36.12.54Z"/>
        </g>
        <g>
          <path class="cls-5" d="M103.75,61.72c-.17.87-.26,1.77-.26,2.69l.37-3.23-.12.54Z"/>
          <path class="cls-5" d="M131.72,64.41l-.38-3.23c.05.18.09.36.12.54.17.87.26,1.77.26,2.69Z"/>
          <path class="cls-5" d="M131.72,64.41v27.04h-28.23v-27.04c0-.92.09-1.82.25-2.69.03-.18.07-.36.12-.54,1.46-6.24,7.06-10.88,13.74-10.88,1.03,0,2.04.11,3.01.32,5.31,1.15,9.51,5.29,10.73,10.56.05.18.09.36.12.54.17.87.26,1.77.26,2.69Z"/>
        </g>
        <g>
          <rect class="cls-10" x="85.88" y="38.91" width="4.69" height="1.6"/>
          <rect class="cls-10" x="86.53" y="37.78" width="3.4" height="1.5"/>
          <rect class="cls-10" x="87.13" y="36.63" width="2.2" height="1.25"/>
          <rect class="cls-10" x="87.68" y="36.1" width="1.1" height=".8"/>
        </g>
        <g>
          <rect class="cls-10" x="91.56" y="38.91" width="4.69" height="1.6"/>
          <rect class="cls-10" x="92.21" y="37.78" width="3.4" height="1.5"/>
          <rect class="cls-10" x="92.81" y="36.63" width="2.2" height="1.25"/>
          <rect class="cls-10" x="93.36" y="36.1" width="1.1" height=".8"/>
        </g>
        <g>
          <rect class="cls-10" x="97.24" y="38.91" width="4.69" height="1.6"/>
          <rect class="cls-10" x="97.89" y="37.78" width="3.4" height="1.5"/>
          <rect class="cls-10" x="98.49" y="36.63" width="2.2" height="1.25"/>
          <rect class="cls-10" x="99.04" y="36.1" width="1.1" height=".8"/>
        </g>
        <g>
          <rect class="cls-10" x="102.33" y="38.91" width="4.69" height="1.6"/>
          <rect class="cls-10" x="102.98" y="37.78" width="3.4" height="1.5"/>
          <rect class="cls-10" x="103.58" y="36.63" width="2.2" height="1.25"/>
          <rect class="cls-10" x="104.12" y="36.1" width="1.1" height=".8"/>
        </g>
        <g>
          <rect class="cls-10" x="107.41" y="38.91" width="4.69" height="1.6"/>
          <rect class="cls-10" x="108.06" y="37.78" width="3.4" height="1.5"/>
          <rect class="cls-10" x="108.66" y="36.63" width="2.2" height="1.25"/>
          <rect class="cls-10" x="109.21" y="36.1" width="1.1" height=".8"/>
        </g>
        <g>
          <rect class="cls-10" x="112.49" y="38.91" width="4.69" height="1.6"/>
          <rect class="cls-10" x="113.14" y="37.78" width="3.4" height="1.5"/>
          <rect class="cls-10" x="113.74" y="36.63" width="2.2" height="1.25"/>
          <rect class="cls-10" x="114.29" y="36.1" width="1.1" height=".8"/>
        </g>
        <g>
          <rect class="cls-10" x="117.57" y="38.91" width="4.69" height="1.6"/>
          <rect class="cls-10" x="118.22" y="37.78" width="3.4" height="1.5"/>
          <rect class="cls-10" x="118.82" y="36.63" width="2.2" height="1.25"/>
          <rect class="cls-10" x="119.37" y="36.1" width="1.1" height=".8"/>
        </g>
        <g>
          <rect class="cls-10" x="122.66" y="38.91" width="4.69" height="1.6"/>
          <rect class="cls-10" x="123.31" y="37.78" width="3.4" height="1.5"/>
          <rect class="cls-10" x="123.91" y="36.63" width="2.2" height="1.25"/>
          <rect class="cls-10" x="124.45" y="36.1" width="1.1" height=".8"/>
        </g>
        <g>
          <rect class="cls-10" x="127.74" y="38.91" width="4.69" height="1.6"/>
          <rect class="cls-10" x="128.39" y="37.78" width="3.4" height="1.5"/>
          <rect class="cls-10" x="128.99" y="36.63" width="2.2" height="1.25"/>
          <rect class="cls-10" x="129.54" y="36.1" width="1.1" height=".8"/>
        </g>
        <g>
          <rect class="cls-10" x="132.82" y="38.91" width="4.69" height="1.6"/>
          <rect class="cls-10" x="133.47" y="37.78" width="3.4" height="1.5"/>
          <rect class="cls-10" x="134.07" y="36.63" width="2.2" height="1.25"/>
          <rect class="cls-10" x="134.62" y="36.1" width="1.1" height=".8"/>
        </g>
        <g>
          <rect class="cls-10" x="137.9" y="38.91" width="4.69" height="1.6"/>
          <rect class="cls-10" x="138.55" y="37.78" width="3.4" height="1.5"/>
          <rect class="cls-10" x="139.15" y="36.63" width="2.2" height="1.25"/>
          <rect class="cls-10" x="139.7" y="36.1" width="1.1" height=".8"/>
        </g>
        <g>
          <rect class="cls-10" x="143.59" y="38.91" width="4.69" height="1.6"/>
          <rect class="cls-10" x="144.23" y="37.78" width="3.4" height="1.5"/>
          <rect class="cls-10" x="144.83" y="36.63" width="2.2" height="1.25"/>
          <rect class="cls-10" x="145.38" y="36.1" width="1.1" height=".8"/>
        </g>
        <g>
          <rect class="cls-10" x="60.12" y="34.71" width="4.07" height="1.38"/>
          <rect class="cls-10" x="60.69" y="33.73" width="2.94" height="1.3"/>
          <rect class="cls-10" x="61.21" y="32.73" width="1.9" height="1.08"/>
          <rect class="cls-10" x="61.68" y="32.27" width=".95" height=".69"/>
        </g>
        <g>
          <rect class="cls-10" x="64.56" y="34.71" width="4.07" height="1.38"/>
          <rect class="cls-10" x="65.12" y="33.73" width="2.94" height="1.3"/>
          <rect class="cls-10" x="65.64" y="32.73" width="1.9" height="1.08"/>
          <rect class="cls-10" x="66.11" y="32.27" width=".95" height=".69"/>
        </g>
        <g>
          <rect class="cls-10" x="69.59" y="34.71" width="4.07" height="1.38"/>
          <rect class="cls-10" x="70.15" y="33.73" width="2.94" height="1.3"/>
          <rect class="cls-10" x="70.67" y="32.73" width="1.9" height="1.08"/>
          <rect class="cls-10" x="71.15" y="32.27" width=".95" height=".69"/>
        </g>
        <g>
          <rect class="cls-10" x="74.62" y="34.71" width="4.07" height="1.38"/>
          <rect class="cls-10" x="75.18" y="33.73" width="2.94" height="1.3"/>
          <rect class="cls-10" x="75.7" y="32.73" width="1.9" height="1.08"/>
          <rect class="cls-10" x="76.18" y="32.27" width=".95" height=".69"/>
        </g>
        <g>
          <rect class="cls-10" x="154.25" y="34.91" width="4.07" height="1.38"/>
          <rect class="cls-10" x="154.81" y="33.92" width="2.94" height="1.3"/>
          <rect class="cls-10" x="155.33" y="32.93" width="1.9" height="1.08"/>
          <rect class="cls-10" x="155.8" y="32.47" width=".95" height=".69"/>
        </g>
        <g>
          <rect class="cls-10" x="159.06" y="34.91" width="4.07" height="1.38"/>
          <rect class="cls-10" x="159.62" y="33.92" width="2.94" height="1.3"/>
          <rect class="cls-10" x="160.14" y="32.93" width="1.9" height="1.08"/>
          <rect class="cls-10" x="160.62" y="32.47" width=".95" height=".69"/>
        </g>
        <g>
          <rect class="cls-10" x="163.88" y="34.91" width="4.07" height="1.38"/>
          <rect class="cls-10" x="164.44" y="33.92" width="2.94" height="1.3"/>
          <rect class="cls-10" x="164.96" y="32.93" width="1.9" height="1.08"/>
          <rect class="cls-10" x="165.43" y="32.47" width=".95" height=".69"/>
        </g>
        <g>
          <rect class="cls-10" x="168.69" y="34.91" width="4.07" height="1.38"/>
          <rect class="cls-10" x="169.25" y="33.92" width="2.94" height="1.3"/>
          <rect class="cls-10" x="169.77" y="32.93" width="1.9" height="1.08"/>
          <rect class="cls-10" x="170.25" y="32.47" width=".95" height=".69"/>
        </g>
        <g>
          <rect class="cls-10" x="174.1" y="34.42" width="2.75" height="1.87"/>
          <g>
            <rect class="cls-10" x="174.86" y="33.09" width="1.99" height="1.75"/>
            <rect class="cls-10" x="175.57" y="31.75" width="1.29" height="1.46"/>
            <rect class="cls-10" x="176.21" y="31.12" width=".64" height=".94"/>
          </g>
        </g>
        <g>
          <rect class="cls-10" x="150.19" y="34.48" width="2.75" height="1.87" transform="translate(303.12 70.84) rotate(-180)"/>
          <g>
            <rect class="cls-10" x="150.19" y="33.16" width="1.99" height="1.75" transform="translate(302.36 68.07) rotate(-180)"/>
            <rect class="cls-10" x="150.19" y="31.81" width="1.29" height="1.46" transform="translate(301.66 65.09) rotate(-180)"/>
            <rect class="cls-10" x="150.19" y="31.19" width=".64" height=".94" transform="translate(301.02 63.31) rotate(-180)"/>
          </g>
        </g>
        <g>
          <rect class="cls-10" x="56.15" y="34.22" width="2.75" height="1.87" transform="translate(115.04 70.32) rotate(-180)"/>
          <g>
            <rect class="cls-10" x="56.15" y="32.9" width="1.99" height="1.75" transform="translate(114.28 67.55) rotate(-180)"/>
            <rect class="cls-10" x="56.15" y="31.55" width="1.29" height="1.46" transform="translate(113.58 64.57) rotate(-180)"/>
            <rect class="cls-10" x="56.15" y="30.93" width=".64" height=".94" transform="translate(112.94 62.79) rotate(-180)"/>
          </g>
        </g>
        <g>
          <rect class="cls-10" x="80.44" y="34.44" width="2.75" height="1.87"/>
          <g>
            <rect class="cls-10" x="81.2" y="33.12" width="1.99" height="1.75"/>
            <rect class="cls-10" x="81.9" y="31.77" width="1.29" height="1.46"/>
            <rect class="cls-10" x="82.54" y="31.15" width=".64" height=".94"/>
          </g>
        </g>
        <rect class="cls-10" x="58.76" y="51.14" width="2" height="2"/>
        <rect class="cls-10" x="63.88" y="51.14" width="2" height="2"/>
        <rect class="cls-10" x="68.69" y="51.14" width="2" height="2"/>
        <rect class="cls-10" x="73.55" y="51.14" width="2" height="2"/>
        <rect class="cls-10" x="78.4" y="51.14" width="2" height="2"/>
        <rect class="cls-10" x="58.72" y="59.65" width="2" height="2"/>
        <rect class="cls-10" x="63.84" y="59.65" width="2" height="2"/>
        <rect class="cls-10" x="68.66" y="59.65" width="2" height="2"/>
        <rect class="cls-10" x="73.51" y="59.65" width="2" height="2"/>
        <rect class="cls-10" x="78.36" y="59.65" width="2" height="2"/>
        <rect class="cls-10" x="58.72" y="68.88" width="2" height="2"/>
        <rect class="cls-10" x="63.84" y="68.88" width="2" height="2"/>
        <rect class="cls-10" x="68.66" y="68.88" width="2" height="2"/>
        <rect class="cls-10" x="73.51" y="68.88" width="2" height="2"/>
        <rect class="cls-10" x="78.36" y="68.88" width="2" height="2"/>
        <rect class="cls-10" x="58.77" y="77.19" width="2" height="2"/>
        <rect class="cls-10" x="63.89" y="77.19" width="2" height="2"/>
        <rect class="cls-10" x="68.71" y="77.19" width="2" height="2"/>
        <rect class="cls-10" x="73.56" y="77.19" width="2" height="2"/>
        <rect class="cls-10" x="78.41" y="77.19" width="2" height="2"/>
        <rect class="cls-5" x="150.67" y="38.84" width="25.74" height="52.68"/>
        <rect class="cls-10" x="152.76" y="51.22" width="2" height="2"/>
        <rect class="cls-10" x="157.88" y="51.22" width="2" height="2"/>
        <rect class="cls-10" x="162.7" y="51.22" width="2" height="2"/>
        <rect class="cls-10" x="167.55" y="51.22" width="2" height="2"/>
        <rect class="cls-10" x="172.4" y="51.22" width="2" height="2"/>
        <rect class="cls-10" x="152.72" y="59.73" width="2" height="2"/>
        <rect class="cls-10" x="157.84" y="59.73" width="2" height="2"/>
        <rect class="cls-10" x="162.66" y="59.73" width="2" height="2"/>
        <rect class="cls-10" x="167.51" y="59.73" width="2" height="2"/>
        <rect class="cls-10" x="172.36" y="59.73" width="2" height="2"/>
        <rect class="cls-10" x="152.72" y="68.95" width="2" height="2"/>
        <rect class="cls-10" x="157.84" y="68.95" width="2" height="2"/>
        <rect class="cls-10" x="162.66" y="68.95" width="2" height="2"/>
        <rect class="cls-10" x="167.51" y="68.95" width="2" height="2"/>
        <rect class="cls-10" x="172.36" y="68.95" width="2" height="2"/>
        <rect class="cls-10" x="152.77" y="77.27" width="2" height="2"/>
        <rect class="cls-10" x="157.89" y="77.27" width="2" height="2"/>
        <rect class="cls-10" x="162.71" y="77.27" width="2" height="2"/>
        <rect class="cls-10" x="167.56" y="77.27" width="2" height="2"/>
        <rect class="cls-10" x="172.41" y="77.27" width="2" height="2"/>
        <g>
          <path d="M42.17,119.34c0,5.55-2.1,10.19-6.29,13.94-4.2,3.74-9.15,5.62-14.87,5.62s-10.95-1.85-14.95-5.54S.05,124.99.05,119.34s2.04-10.54,6.14-14.14c4.09-3.6,9.03-5.41,14.82-5.41s10.76,1.83,14.92,5.49c4.16,3.66,6.24,8.35,6.24,14.07ZM26.36,105.14c-1.04-2.91-2.83-4.37-5.36-4.37-1.28,0-2.39.42-3.33,1.25s-1.66,2.04-2.16,3.61c-.5,1.58-.87,3.61-1.09,6.08-.23,2.48-.34,5.02-.34,7.62,0,3.57.14,6.48.42,8.74.28,2.25.8,4.46,1.56,6.6.76,2.15,2.41,3.22,4.94,3.22,1.28,0,2.39-.42,3.33-1.25.94-.83,1.66-2.04,2.16-3.61.5-1.58.87-3.61,1.09-6.08.23-2.48.34-5.02.34-7.62,0-3.08-.1-5.76-.31-8.03s-.62-4.32-1.25-6.16Z"/>
          <path d="M95.05,101.19c-.45.04-.96.07-1.53.1-.57.03-1.33.12-2.29.26-.95.14-1.68.55-2.18,1.25-.5.69-.81,1.59-.91,2.7l-.1,2.5v15.44l-.1,2.6c-.52,4.78-1.82,8.12-3.9,10.01-2.08,1.89-5.3,2.83-9.67,2.83-5.75,0-10.19-1.09-13.31-3.28-3.12-2.18-4.68-4.9-4.68-8.16v-20.49l-.1-2.39c-.1-1.11-.34-1.88-.7-2.31-.36-.43-1.08-.72-2.16-.86l-2.18-.21v-.83h24.34v.83c-.45.04-.96.06-1.53.08-.57.02-1.31.09-2.21.21-.9.12-1.53.37-1.87.75-.35.38-.57,1.16-.68,2.34l-.1,2.39v20.85c0,.42.02.92.05,1.51.03.59.15,1.5.34,2.73.19,1.23.88,2.44,2.08,3.64,1.2,1.2,2.83,1.79,4.91,1.79,2.91,0,5.1-.74,6.58-2.21,1.47-1.47,2.46-3.16,2.96-5.07.5-1.91.77-3.54.81-4.89l.05-2.44v-15.08l-.1-2.5c-.1-1.14-.39-2.01-.86-2.6-.47-.59-1.17-.96-2.11-1.12-.94-.16-1.72-.25-2.34-.29s-1.21-.07-1.77-.1v-.83h15.29v.83Z"/>
          <path d="M114.6,132.29l.1-2.39v-23.04l-.1-2.39c-.1-1.14-.34-1.92-.7-2.31-.36-.4-.88-.64-1.56-.73-.68-.09-1.25-.14-1.72-.16-.47-.02-.88-.04-1.22-.08v-.83h23.5v.83l-2.44.21c-1.04.14-1.75.42-2.13.83-.38.42-.62,1.2-.73,2.34l-.1,2.39v18.04c0,3.81-1.83,7.08-5.49,9.8-3.66,2.72-7.71,4.08-12.14,4.08-3.27,0-5.95-.76-8.02-2.29-2.07-1.53-3.11-3.66-3.11-6.4,0-1.73.64-3.22,1.93-4.47,1.29-1.25,2.82-1.87,4.59-1.87,2.09,0,3.74.59,4.96,1.77,1.22,1.18,1.83,2.72,1.83,4.63,0,1.66-.4,3-1.2,4-.9.94-1.79,1.87-2.65,2.81,0,.35.24.58.73.7.49.12,1.09.18,1.82.18,1.49,0,2.5-.58,3.04-1.74.54-1.16.81-2.47.81-3.93Z"/>
          <path d="M140.13,138.27v-.83c.45,0,.97-.03,1.56-.08.59-.05,1.26-.12,2-.21.75-.09,1.32-.35,1.72-.78.4-.43.65-1.2.75-2.31l.1-2.39v-24.65l-.1-2.39c-.1-1.11-.36-1.89-.78-2.34-.42-.45-1-.73-1.74-.83-.75-.1-1.42-.16-2.03-.18-.61-.02-1.15-.04-1.64-.08v-.83l19.4-.1c4.06,0,7.88.38,11.47,1.14,3.59.76,6.9,2.7,9.93,5.82,3.03,3.12,4.55,7.52,4.55,13.21s-1.36,9.46-4.08,12.04c-2.72,2.58-5.6,4.19-8.63,4.84-3.03.64-6.56.96-10.58.96h-21.89ZM164.57,101.87c-.49-.21-1.24-.35-2.26-.42-1.02-.07-1.9-.1-2.63-.1h-.62v35.93c.24,0,.47,0,.68.03s.47.03.78.03c1.32,0,2.52-.09,3.61-.26,1.09-.17,2.11-.62,3.07-1.33.95-.71,1.87-2.6,2.76-5.67.88-3.07,1.33-6.21,1.33-9.44,0-4.51-.55-8.54-1.64-12.09s-2.78-5.78-5.07-6.68Z"/>
          <path d="M201.23,126.41l-1.61,5.41c-.35,1.25-.52,2.24-.52,2.96,0,.8.2,1.35.6,1.66.4.31.91.53,1.53.65.62.12,1.23.2,1.82.23.59.03,1.16.07,1.72.1v.83h-14.72v-.83l3.09-.21c1.15-.14,2.02-.42,2.61-.86.59-.43,1.04-.98,1.33-1.64.3-.66.63-1.44.99-2.34.37-.9.67-1.72.92-2.44l9.93-29.74h5.72l10.97,29.74,1.61,4.06c.49,1.07.98,1.85,1.48,2.31s1.21.77,2.11.91l2.13.21v.83h-24.7v-.83c.42,0,.79,0,1.12-.03.33-.02.93-.09,1.79-.23s1.49-.32,1.87-.55c.38-.23.57-.7.57-1.43s-.24-1.85-.73-3.28l-1.87-5.51h-9.78ZM210.59,125.32l-4.58-12.79-4.42,12.79h9Z"/>
        </g>
      </g>
    </g>
  </g>
</svg>